<?xml version="1.0" encoding="utf-8"?>
<!-- Generator: Adobe Illustrator 24.3.0, SVG Export Plug-In . SVG Version: 6.00 Build 0)  -->
<svg version="1.1" id="Layer_1" xmlns="http://www.w3.org/2000/svg" xmlns:xlink="http://www.w3.org/1999/xlink" x="0px" y="0px"
	 viewBox="0 0 529.3 167" style="enable-background:new 0 0 529.3 167;" xml:space="preserve">
<style type="text/css">
	.st0{fill:#F9B233;stroke:#000000;stroke-miterlimit:10;}
</style>
<g>
	<path class="st0" d="M205.9,117.5l0.9-3.2l5-1L205.9,117.5z M271.8,44.8c-0.4,0.7-0.9,1.3-1.4,1.9c-0.5,0.6-1.1,1.3-1.7,2l7.5-3.9
		l-33.7,32.7l4.7-1.3l-9.3,9.3l3.7-0.9c-1.8,1.3-3.6,2.6-5.4,3.9L224.9,101c-1.3,0.6-2.2,1.1-2.9,1.4c-0.6,0.3-1.2,0.6-1.8,0.9
		c-0.6,0.3-1.4,0.7-2.4,1.2c-1,0.5-2.5,1.2-4.5,2.2l7.8,0.2l-15,12.7l21.2,4l-2.8-3l30.5-1l-5-2.7l31.6-2.6l-6.2-1.6L314,112
		l-27.5-6.1l23.4-2.3l-14.3-0.3c-0.9-0.2-2-0.3-3.3-0.5l5.6-1.4l-8.9,1c-2.3-0.3-5.2-0.6-8.7-0.9l-18.9,0.9l13.3-3.4l-14.4,2.3
		l-5.7,0.2l-1.4,0.9l-7.8,1.3l8.9-6.3c-1.7,0.7-3.3,1.3-4.6,1.8c-1.3,0.5-2.7,1-4.2,1.6l6.3-6.9c3.6-2.4,8.3-5.5,13.8-9.3l-5,0.2
		l4.6-5.1c1.3-1.1,2.7-2.2,4.1-3.4c2.4-2,4.9-4,7.3-6h-2.9c4.2-3.4,9-7.7,14.4-13.1c5.4-5.4,9-10.4,10.8-15.2c0.3-1,0.5-1.9,0.4-2.6
		c0-0.7-0.1-1.3-0.4-1.8c-0.2-0.5-0.5-0.9-0.8-1.2s-0.6-0.5-0.9-0.7c-0.3-0.1-0.7-0.2-1.1-0.4c0.4-0.2,0.8-0.2,1.1-0.3
		c0.3,0,0.6,0,0.9,0.2c0.3,0.1,0.7,0.4,1,0.8c0.3,0.4,0.6,0.9,0.8,1.7c0.2,0.8,0.3,1.7,0.4,2.9c0,2.2-0.9,4.6-2.6,7.2
		c-1.7,2.6-3.7,5.3-5.9,8c-2.6,3.1-4.6,5.9-6,8.5c2.3-2.8,4.6-5.5,6.9-8.2c4.7-5.2,8.4-10,11.1-14.4c2.7-4.4,3-8.1,0.8-11.2
		c-2.2-3.1-8.3-5.3-18.4-6.5l3.9,2.5l-36.3,2.5c2.2,0.3,4,0.6,5.5,0.9L233.6,34l13.9,1.4l-22.6,7.4l19.5,0.6l-5.1,4.3l25.9-4.4
		l-1,2.2l8.8-2.7C272.6,43.5,272.2,44.1,271.8,44.8z M232.1,128.3l-2.7,2.8l-4.4-3.4L232.1,128.3z M229.5,93.6l0.3-4l7-1.7
		L229.5,93.6z M261.7,52.4l0.2-3.2c1.1-0.3,1.9-0.6,2.6-0.8c0.7-0.2,1.3-0.4,1.8-0.6c0.5-0.2,0.8-0.3,0.9-0.3L261.7,52.4z
		 M264.8,23.1l7.6-2.7l10.4,4L264.8,23.1z M277,75.7l-0.8,3.9l-10.4,4.2L277,75.7z"/>
	<path class="st0" d="M350.6,28.3c-1.4,0.2-2.6,0.4-3.7,0.6c-1.1,0.2-2.1,0.4-2.9,0.6c-0.9,0.2-1.6,0.4-2.3,0.6
		c-0.7,0.2-1.2,0.4-1.7,0.6c-0.4,0.2-0.8,0.3-1.1,0.5c-0.3,0.1-0.6,0.3-0.8,0.4c-0.2,0.1-0.3,0.2-0.4,0.3c-0.1,0.1-0.2,0.1-0.2,0.2
		c3.7-0.7,7.9-1.4,12.7-2.1c4-0.6,7.2-1,9.7-1.1c2.5-0.1,4.8-0.2,6.8-0.2c0.8-0.1,1.7-0.1,2.7-0.1c-0.3,0.1-0.5,0.2-0.8,0.3
		c-1.2,0.6-2.3,1.1-3.4,1.6c-1.1,0.5-1.7,0.7-2,0.8c-0.1,0,0.1,0.1,0.6,0.2c0.5,0.2,1.1,0.3,1.9,0.6c0.8,0.2,1.6,0.4,2.4,0.6
		c0.8,0.2,1.7,0.5,2.8,0.8c-1.7,0.6-4,1-6.8,1.3c-2.9,0.3-5.2,0.7-6.9,1.3c1.3,0.5,2.7,0.9,4.4,1.4c1.7,0.4,3.2,0.9,4.4,1.4
		c-2.8,0.2-5.3,0.6-7.3,1.2c-2.1,0.5-4.5,0.9-7.3,1.2c2.2,0.7,4.3,1.3,6.5,2c-3.5-0.6-7.4-0.7-11.8-0.5c-4.4,0.3-8.3,0.8-11.8,1.6
		c1.2-0.7,2.3-1.4,3.6-2.1c0.7-0.4,1.5-0.8,2.2-1.3c-3.3,0.7-6.3,1.7-8.9,3c-1.3,0.7-2.6,1.9-4,3.6c-1.3,1.6-2.5,3.4-3.6,5.1
		c-1.1,1.8-2.3,4-3.6,6.6c0.2-1.4,0.3-2.8,0.4-4.2c0.1-0.2,0.1-0.3,0.1-0.5c-2.7,4.9-5.1,9.1-7.2,12.8c0.5,0.2,1.1,0.3,1.6,0.4
		c0.3,0.1,0.6,0.2,0.9,0.2c3.5-0.3,6.9-0.7,10.4-1c0.8,0.2,1.7,0.4,2.5,0.6c0.8,0.3,1.6,0.5,2.5,0.7c-0.4,0.3-0.7,0.5-1.1,0.7
		c-0.3,0.2-0.7,0.4-1,0.7c2,0.1,3.9,0.1,5.9,0.2c2.2,0.1,4.3,0.1,6.5,0.2c-2.4,0.7-4.7,1.3-7.1,2c3,0.5,5.4,0.9,7.4,1.3
		c2,0.3,3.7,0.6,5.3,0.9c1.6,0.3,2.5,0.4,2.8,0.4c0.2,0-0.1,0.1-1,0.3c-0.9,0.2-2.1,0.4-3.5,0.7c-1.5,0.3-2.9,0.6-4.4,0.9
		c-1.5,0.3-3.3,0.6-5.4,1.1c0.9,0.3,1.9,0.6,2.8,0.9c0.9,0.3,1.8,0.5,2.8,0.8c-5.6,0.8-11.3,1.7-16.9,2.5c0.5-0.4,1-0.7,1.5-1
		c0.5-0.3,1.1-0.7,1.6-1c-2.3,0.6-4.6,1.2-7,1.8c-2.3,0.6-4.6,1.2-7,1.7c0.4-0.4,0.9-0.8,1.3-1.2c0.5-0.4,0.9-0.8,1.4-1.3l-3.8,1.5
		l-17.7,5.7l8.3-1c-1.9,3.7-3.4,7-4.5,9.7c-1.1,2.7-1.6,4.5-1.5,5.3c0.3,1.1,0.9,2,1.6,2.5c0.8,0.6,1.6,1,2.5,1.2
		c0.9,0.2,1.9,0.3,3.2,0.3c-1.5-1.2-3-2.5-4.5-3.7c4.2,1.7,7.9,2.2,11.1,1.5c3.2-0.7,6.7-2.2,10.4-4.4c-0.7,0.6-1.4,1.2-1.9,2
		c-0.5,0.7-1.2,1.4-1.9,2c5.2-1.4,10.2-2.9,15.2-4.4c5-1.6,10.1-3.1,15.3-4.5c-2.3,1.3-4.5,2.6-6.7,3.9c-1.1,0.6-2.1,1.3-3.2,1.9
		c3.3,0.1,6.6,0.2,9.9,0.3c3.5,0.1,7,0.2,10.5,0.3c-3.6,1.5-6.7,2.8-9.1,3.8c-2.4,1-4.7,1.9-6.7,2.7c-2,0.8-3.3,1.2-3.8,1.3
		c-0.4,0.1-0.2,0.2,0.5,0.3c0.7,0.1,1.6,0.2,2.8,0.4c1.2,0.1,2.5,0.3,3.8,0.4c1.3,0.1,2.9,0.2,4.7,0.4c-6,1.7-11.9,3.5-17.9,5.3
		c-6.9,2.1-13.8,4.1-20.8,6.2c1.7-1.1,3.5-2.2,5.2-3.2c0.8-0.5,1.6-0.9,2.3-1.4c-3.7,1.5-7,2.6-9.9,3.3c-2.8,0.7-5.6,1.1-8.3,1.1
		c-2.8,0-5.3-0.3-7.4-0.9c-2.1-0.6-4.4-1.6-6.8-2.9c0.5,0.6,0.9,1.2,1.4,1.7c0.9,1.2,1.9,2.3,2.8,3.6c-2.3-1.1-4.1-2.3-5.6-3.6
		c-1.5-1.3-2.7-3-3.6-5.3c-1-2.2-1.4-5-1.2-8.2c0.5-4.4,1.5-8.6,2.9-12.5c1.5-3.9,3.6-8.4,6.5-13.3c-1.8,1.6-3.6,3.2-5.3,4.8
		c0.8-1.6,1.7-3.1,2.5-4.7c0.8-1.6,1.6-3.2,2.5-4.7c-1.2,0.2-2.3,0.4-3.5,0.6c-1.5,0.2-3.1,0.4-4.6,0.7c2.4-0.9,4.8-1.8,7.2-2.8
		c0.6-0.2,1.2-0.4,1.7-0.6c-1.1-0.9-2.1-1.6-2.8-2.2c-0.8-0.6-1.5-1.1-2.2-1.6c-0.7-0.5-1.1-0.8-1.3-0.9c-0.1-0.1,0.3-0.2,1.2-0.4
		c0.9-0.2,2.1-0.4,3.7-0.6c1.5-0.2,3.2-0.5,4.9-0.8c2-3.9,4-7.7,6-11.6c0,0.9,0,1.9,0,2.8c0,0.9,0,1.9,0,2.8
		c1.8-3.4,3.6-6.9,5.4-10.3c1.8-3.4,3.6-6.8,5.4-10.2c-2.5,1.8-5,3.6-7.4,5.5c0.2-0.4,0.5-0.8,0.8-1.2c0.3-0.4,0.7-1,1.3-1.7
		c0.6-0.7,1.4-1.5,2.4-2.5c1-1,2.3-2.2,3.8-3.5c2.5-2.2,4.9-3.9,7.1-5c2.2-1.1,4.7-2.1,7.4-2.9c-0.6,0.6-1.2,1.3-1.8,1.9
		c-1.2,1.2-2.4,2.3-3.6,3.6c7.2-3.3,14.1-5.4,20.6-6.3c2-0.2,3.7-0.3,5.3-0.4s3.3-0.1,5.2-0.1c1-0.1,2.1-0.1,3.3-0.1
		C353.5,27.8,352,28.1,350.6,28.3z"/>
	<path class="st0" d="M344.5,39.6l-7-2.8l10.9-0.9l-17.2-8.1h23l-10.8-3.9c3.8,0.2,7.2,0.4,10.1,0.7c3,0.2,6,0.5,9.3,0.9
		c3.2,0.4,6.4,0.7,9.4,0.9c3.1,0.2,6.6,0.4,10.6,0.6l-11.1-3.4c5.6,1,12.3,1.8,20.1,2.3c7.7,0.5,14.9,0.3,21.5-0.6l-9.4,5.8
		l17.6-0.6l-10.1,3.6l17.1,2.6c-0.7,0.2-1.3,0.3-1.7,0.4c-0.5,0.1-1,0.2-1.6,0.4c-0.6,0.1-1.4,0.3-2.5,0.4c-1.1,0.2-2.7,0.4-4.7,0.7
		c-2.8,0.4-5.8,0.7-8.7,1.1c-3,0.3-6.5,0.8-10.7,1.2l10.7,1.2l-8.1,0.9l-9.7,0.6L384.8,54l1.9-6.8c-1.9,4-3.7,7.4-5.5,10.3
		c-1.3,2-2.9,5-4.9,9.1c-2,4.1-3.8,8.1-5.5,11.8c-1.7,3.7-2.7,6-3,6.8l0.2-0.1l6-4.9l-3.6,4.4c0.3-0.1,0.6-0.1,0.8-0.2
		c0.2-0.1,0.3-0.1,0.3,0c-5.6,9.8-9.7,19.2-12.1,28s-2.6,16.7-0.5,23.4c-1.8-0.6-3.6-1.5-5.4-2.5c-2.4-1.4-4.3-3-5.7-4.6
		c-1.3-1.6-2.3-3.2-2.8-4.8c-0.6-1.6-0.9-3-0.9-4.4c-0.1-1.3,0.1-2.8,0.4-4.4c-0.5,1.4-0.9,2.6-1.2,3.8c-0.3,1.1-0.4,2.4-0.5,3.8
		c0,0.5,0,1,0,1.4c0,0.4,0,0.8,0,1.1s0,0.6,0,0.8s0,0.4,0,0.6c0,0.2,0,0.3,0,0.4c0,0.1,0,0.2,0,0.2c0,0.1,0,0.1,0,0.2
		c-0.1-0.1-0.1-0.1-0.2-0.2c-0.1-0.1-0.1-0.1-0.2-0.3c-0.1-0.1-0.2-0.3-0.2-0.5c-0.1-0.2-0.2-0.5-0.2-0.8c-0.1-0.3-0.2-0.7-0.2-1.1
		c-0.1-0.4-0.1-0.9-0.2-1.5c-0.1-0.6-0.1-1.3-0.1-2c0-0.8,0-1.6,0-2.5c0-0.9,0-1.9,0-3c0.3-5.6,1.3-11.3,3-17l-0.7,7l6.2-17.9
		l-2.6,2.8l15.7-29.1l-4.7,5.2l11.5-23.2l0.1-0.1c-9.1-0.4-19.1-1-30-1.8L344.5,39.6z"/>
	<path class="st0" d="M444.9,29.6c1.7,5.1,1.9,11.8,0.6,20.1c0.6-7.9-0.3-14-2.8-18.3s-7-4.7-13.5-1.3c5.4-2.3,9.2-1.8,11.4,1.4
		c2.2,3.2,3.4,7.4,3.5,12.5s-0.1,9.5-0.6,13c-1.5,9.5-3.7,19-6.5,28.3c-0.7,2.4-1.3,4.8-2,7.1l5.1-0.9l-6.7,8.9l7.7,0.2
		c-1.8,0.6-3.3,1.1-4.5,1.5c-1.2,0.4-2.3,0.8-3.2,1.1c-1,0.4-1.6,0.6-1.9,0.8v0.2c0.2,0.1,0.6,0.3,1.2,0.5c0.6,0.2,1.2,0.5,1.9,0.8
		c0.7,0.3,1.5,0.6,2.5,1.1l-6.4,0.7l-6.4,26.7l-1.7-6.9l-6,18.7l1.9-13.1l-9.8,23.2l7.3-30.4l-3.4,4.7l4.6-21.1l-24.8,3
		c-0.8,2.1-1.7,4.4-2.7,7l-2.4-4l-2.8,11.6l-0.9-6.3l-10.4,16.2l4.7-15.8l-1.5,1.3l3.6-8.9l-13.1,2.3l5-3.2
		c-2.5,0.2-4.5,0.3-6.1,0.4c-1.6,0.1-3.1,0.3-4.4,0.4c-1.3,0.1-2,0.2-2.3,0.3c-0.1,0,0.3-0.2,1.3-0.5c0.9-0.3,2.2-0.8,3.6-1.3
		c1.5-0.6,3-1.1,4.5-1.7c1.5-0.6,3.3-1.3,5.3-2.1l-4.4-2l13.7-1.6c0.3-0.9,0.6-1.7,0.8-2.3c0.2-0.6,0.5-1.3,0.7-1.9
		c0.2-0.6,0.4-1.1,0.5-1.5c0.1-0.4,0.2-0.6,0.1-0.5c-0.1,0.1,0-0.1,0.2-0.4c0.2-0.3,0.4-0.8,0.6-1.3c0.2-0.6,0.5-1.1,0.7-1.7
		c0.2-0.6,0.5-1.3,0.8-2.1c-0.8,1.3-1.5,2.4-2.1,3.3c-0.5,0.9-1,1.7-1.4,2.4c-0.4,0.7-0.7,1.1-0.7,1.2c-0.1,0.1-0.1,0.1-0.1,0
		c0,0,0-0.1,0.1-0.3c0.1-0.2,0.1-0.5,0.2-0.8c0.1-0.4,0.2-0.8,0.4-1.4c0.2-0.6,0.4-1.3,0.7-2.1c0.3-0.8,0.6-1.8,1-2.9
		c0.8-2.3,1.9-4.7,3.1-7.2c1.2-2.5,2.8-5.4,4.7-9c-0.3,1.3-0.6,2.3-0.8,3.1c-0.2,0.8-0.4,1.6-0.7,2.3c-0.2,0.7-0.4,1.3-0.6,1.6
		c-0.1,0.2,0.3-0.4,1-1.7c0.7-1.3,1.6-2.9,2.8-4.9c1.1-2,2.3-4,3.4-6c1.2-2,2.6-4.5,4.2-7.3c-0.7,0.6-1.3,1.2-1.8,1.6
		c-0.5,0.4-0.9,0.8-1.3,1.2c-0.4,0.4-0.7,0.6-0.9,0.6c-0.1,0,0.4-0.7,1.2-2.1c0.9-1.4,2-3.1,3.3-5.2c1.3-2.1,2.7-4.2,4.1-6.3
		c1.4-2.1,3-4.6,4.9-7.4c-1.5,1.3-2.7,2.5-3.6,3.4c-0.9,0.9-1.8,1.8-2.6,2.6c-0.8,0.8-1.2,1.3-1.4,1.7c-0.1,0.2,0.1,0,0.4-0.6
		c1.1-2.6,4.9-8.3,11.2-17.1c4.2-5.2,9.4-10,15.5-14.4l-6.3,7.8c2-1.6,3.8-2.8,5.4-3.7c1.6-0.9,3.3-1.5,5-1.8c1.8-0.3,3.5,0,5.1,0.9
		C442.4,25.1,443.8,26.9,444.9,29.6z M397.5,98.9l10.5-4.3l-4.8,3.3l15.6-2.8l1.8-7.3l-2.1,3.2l1.3-5.1c0.2-0.9,0.5-2.4,0.9-4.4
		c0.4-2,0.8-4.1,1.2-6.3c0.4-2.2,0.9-4.9,1.6-8l1.7,2.5c0.1-1.7,0.2-3.2,0.2-4.5c0.1-1.3,0-2.5-0.1-3.7c-0.1-1.2-0.3-2.2-0.6-2.9
		c-0.3-0.8-0.7-1.1-1.3-0.9c-1,0.4-1.9,0.9-2.8,1.6c-0.9,0.7-1.9,1.6-3,2.8l4.6-1.8c-0.3,0.2-0.6,0.5-1,0.8
		c-0.3,0.3-0.8,0.7-1.3,1.3c-0.6,0.6-1.3,1.3-2.1,2.3c-0.9,1.1-2,2.8-3.4,5.3c-1.3,2.5-2.7,5.1-4.1,8c-1.4,2.8-2.6,5.3-3.6,7.4
		c-1,2.1-1.6,3.3-1.7,3.6c-0.1,0.2-0.1,0,0.1-0.4c0.2-0.4,0.4-1,0.6-1.8c0.3-0.8,0.5-1.5,0.8-2.3c0.3-0.8,0.6-1.8,1-2.9
		c-1,1.2-2,2.6-3,4.2c-1,1.6-2.4,3.9-4,7C399.4,94.7,398.5,96.7,397.5,98.9z"/>
</g>
<g>
	<path class="st0" d="M103.1,67.3c0.2-0.6,0.4-1.2,0.5-1.8c0.5-1.5,1-3.1,1.5-4.7c-1.4,2.1-2.6,3.9-3.6,5.4c-1,1.5-2,3.2-3,4.8
		c-1,1.7-1.8,3.2-2.5,4.5c-0.2,0.5-0.5,1-0.7,1.4c-0.2,0.4-0.4,0.8-0.5,1.2c-0.2,0.3-0.3,0.7-0.4,1c-0.1,0.3-0.2,0.5-0.3,0.8
		c-0.1,0.2-0.2,0.4-0.2,0.6c-0.1,0.2-0.1,0.3-0.2,0.4c0,0.1-0.1,0.2-0.1,0.3c0,0.1-0.1,0.1-0.1,0.2c0,0,0,0.1,0,0.1
		c0-0.8,0.1-1.6,0.1-2.4c0-0.7,0.1-1.3,0.1-2c-0.2,0.5-0.7,1.6-1.5,3.4c-0.8,1.7-1.5,3.6-2.3,5.7c-0.8,2.1-1.4,3.9-1.9,5.5
		c-0.8,2.9,0.2,3.6,2.7,2c1.7-1,3.3-2.1,4.7-3.3c0.7-0.5,1.2-0.9,1.5-1.2c-0.5,0.6-1,1.2-1.5,1.8c-0.5,0.6-1,1.2-1.6,1.7
		c3.9-1.1,7.7-2.7,11.4-4.7c2.9-1.5,6-2.9,9.1-4.1c-1.3,0.8-2.7,1.5-4.1,2.3c-2.1,1.2-4.1,2.4-6.2,3.5c4.4-1.5,8.1-2.9,11.2-4.2
		c1.9-0.9,3.4-1.7,4.4-2.3c1-0.6,1.9-1.2,2.6-1.8c-1,1.5-2.3,3-3.8,4.4c-1.5,1.4-3.8,3-6.8,4.9c-1.5,0.9-2.5,1.6-3,2
		c-0.5,0.4-0.7,0.7-0.5,0.8c0.2,0.1,0.5,0.1,1.1,0c0.6-0.1,1.2-0.3,1.9-0.5c0.7-0.2,1.5-0.5,2.5-0.9c-2,2.4-4.4,4.4-7.3,6
		c-2.9,1.7-5.5,2.9-7.9,3.8c-2.4,0.9-3.8,1.4-4.3,1.5l-0.1,0c0.1,0,0.2-0.1,0.5-0.3c0.3-0.2,0.6-0.4,1-0.7c0.4-0.2,0.8-0.6,1.4-1
		c-4.3,2.1-8.3,2.7-12.3,1.8c-3.9-0.9-5.6-4.7-5.1-11.5c-0.4,1-0.8,1.9-1.2,2.9c-0.4,1.1-0.9,2.1-1.3,3.2c0.6-3.7,1.6-7.1,2.8-10.3
		c1.6-4.1,2.9-7.2,4-9.4c-1.1,1.5-2,2.9-2.8,4.3c-0.8,1.4-1.6,3.1-2.5,5.1c0-0.3,0.1-0.6,0.2-0.9c0.1-0.3,0.2-0.9,0.4-1.5
		c0.2-0.7,0.4-1.5,0.7-2.5c0.3-1,0.7-2.2,1.2-3.6c0.9-2.6,1.9-4.8,2.8-6.5c0.9-2,2-4.1,3.6-6.3c1.6-2.2,2.9-3.9,3.9-5.1
		c1-1.2,1.9-2.3,2.8-3.1c-0.2,0.9-0.4,1.8-0.7,2.8c-0.1,0.4-0.2,0.8-0.3,1.2c1-2.1,2-3.9,2.9-5.4s2-3,3.3-4.6c-0.2,0-0.4,0-0.6,0
		c-0.1,0-0.2,0-0.3,0c1.8-1.7,3.4-3,4.8-3.9c1.4-0.9,2.9-1.6,4.4-2c0.7-0.1,1.2-0.2,1.7-0.3c0.5-0.1,0.9-0.2,1.3-0.2
		c0.4,0,0.7,0,0.9,0c0.3,0,0.5,0,0.6,0c0.2,0,0.3,0.1,0.4,0.1c0.1,0,0.2,0.1,0.2,0.1c-1,0.1-1.8,0.3-2.6,0.6c0.2,0,0.5,0.1,0.8,0.1
		c1.7,0.2,3.1,0.7,4.3,1.3c1.2,0.6,2.5,1.5,3.8,2.7c-0.6-1-1.2-1.9-1.7-2.9c1.7,1.3,3.1,2.7,4.1,4.1c1,1.4,1.8,3.2,2.4,5.4
		c0.3,1.3,0.5,2.4,0.6,3.4c0.1,0.9,0.1,1.7,0.1,2.3c0,0.6-0.1,1.1-0.2,1.4c-0.1,0.3-0.3,0.7-0.4,0.9c0.1-0.1,0.1-0.3,0.1-0.4
		c0-0.1,0-0.3,0-0.5c0-0.2-0.1-0.5-0.1-0.8c-0.1-0.3-0.2-0.7-0.3-1.1c-0.4-1.1-1-2.1-1.6-3c0.3,0.8,0.5,1.5,0.6,2.4
		c0.1,0.8,0.1,1.9,0,3.2c-0.1,1.3-0.4,2.5-0.8,3.5c-0.4,1-0.9,2.1-1.6,3.2c0.2-1.5,0.3-2.9,0.2-4c0-1.1-0.3-2.2-0.7-3.4
		c-0.7-1.6-1.7-3.1-3-4.5c0.2,0.2,0.3,0.5,0.5,0.8c0.1,0.3,0.3,0.7,0.5,1.3c0.2,0.5,0.3,1.1,0.3,1.6c0,0.5,0.1,1.1,0,1.8
		c-1.2-3.5-2.8-5.2-4.8-5.2s-4,0.8-6,2.5C105.4,64.2,104,65.8,103.1,67.3z"/>
	<path class="st0" d="M135.4,47.5l0.9-1.3l5.2-3l2.3,3.1l4.2-1.9l-4.4,9.5l1.1,2.8L137.3,71l0-2.4l-2.2,6.9c0.3-0.5,0.6-1,0.9-1.7
		c0.2-0.5,0.5-1,0.9-1.6c-0.1,1.6-0.4,3-1,4.1c-0.5,1.2-1.1,2.3-1.8,3.4c-0.4,0.7-0.9,1.5-1.3,2.3l2.8-2l-9.8,18.5l2.5-7.2
		l-13.8,19.5l2.8-12.5l-4.7,5.4L124,82.2l-3.9,2.6c0.2-0.5,0.5-1,0.7-1.5c1.9-4.3,3.9-8.4,6.1-12.6c-0.6,2-0.8,2.9-0.5,2.6
		c0.3-0.3,0.8-1.2,1.5-2.6c0.7-1.4,1.5-2.9,2.2-4.4c0.6-1.4,1.1-2.3,1.4-2.8l-0.6,3.1l5.8-13.3l-9.5,16.8l3.5-9.1l-3,3.6L135.4,47.5
		z"/>
	<path class="st0" d="M176.4,69.8l8.7-16.9l-1.2,5.2c1.7-2.6,3.1-4.9,4.3-6.8c1.2-1.9,2.4-3.8,3.6-5.7c1.2-1.9,2.1-3.4,2.9-4.7
		c0.7-1.2,1.1-1.8,1-1.7c-0.2,0.3-0.5,1.3-1.2,3.2c-0.6,1.8-1.3,3.9-2.1,6.3c-0.8,2.3-1.7,5.3-2.9,8.9l4.7-3l-5,8.1l1.8-0.3l-1,2.5
		c0.1,0,0.2-0.1,0.2-0.1c0.1-0.1,0,0.3-0.4,1c-0.3,0.7-0.8,1.6-1.4,2.6c-0.6,1.1-1.2,2.1-1.8,3.2c-0.6,1.1-1.3,2.4-2.2,3.9l3.5-3.3
		l-14.3,26c0.4-1.5,0.7-2.8,0.9-3.8c0.2-1,0.4-1.9,0.7-2.7c0.2-0.8,0.4-1.3,0.5-1.5c0,0,0,0,0,0c-0.2,0.3-0.8,1.3-1.8,2.9
		c-1,1.6-2.1,3.4-3.5,5.4c-1.3,2-2.6,3.7-3.8,5.1c-1.2,1.4-2.1,2.1-2.7,2c-0.6-0.2-1-0.8-1.3-1.9c-0.3-1-0.4-2.2-0.5-3.4
		c0-1.3,0-2.8,0.1-4.8l-2.5,2.5c-0.2-1.5-0.3-3.8-0.3-7c0-3.2,0.1-6.5,0.4-10c0.3-3.5,0.7-6.3,1.3-8.6l-2.7,3.7c0.5-1.6,1-2.9,1.3-4
		c0.3-1.1,0.6-2.2,0.9-3.2c0.3-1,0.4-1.8,0.3-2.3c0-0.4-0.2-0.4-0.5-0.2c-0.3,0.3-0.7,0.7-1.2,1.3c-0.5,0.6-1,1.3-1.5,1.9
		c-0.5,0.7-1.1,1.5-1.7,2.5l1.4-4.8l-5.6,11.8l3.7-3.8l-7.9,20.5l0.9-7.4l-9,16.8l2.6-10.6c-1.2,1.9-2.1,3.4-2.8,4.6
		c-0.7,1.2-1.3,2.3-1.9,3.2c-0.5,0.9-0.8,1.4-0.8,1.5l6.1-20l-3.1,2.9l7.7-19.5l-0.9,4.8c1.1-2.6,2-4.8,2.8-6.6
		c0.8-1.8,1.6-3.5,2.4-5.1c0.8-1.6,1.5-2.9,2.1-3.7c1.1-1.5,2.2-2.8,3.3-3.8l-3,1.3c1.5-1.6,2.9-2.8,4.1-3.7c1.2-0.9,2.5-1.6,3.8-2
		c1.4-0.3,2.5-0.5,3.4-0.5c0.9,0,1.9,0.1,2.8,0.3l-3,0.6c0.6,0,1.1,0.1,1.6,0.3c0.5,0.2,1,0.4,1.5,0.9c0.4,0.3,0.7,0.9,0.8,1.8
		c0.2,0.9,0.2,1.8,0.2,2.7c0,1,0,2.1-0.1,3.6l-0.7-1.8l-1,11.8h0l2.5-3.7c-1,3.7-1.6,7.3-1.7,10.8c-0.2,2.7-0.5,5.5-1,8.4
		c0,0.1,0,0,0.2-0.3s0.3-0.6,0.5-1c0.2-0.4,0.4-0.9,0.7-1.3c0.2-0.5,0.5-1,0.8-1.6c-0.2,1.4-0.4,2.5-0.6,3.5c-0.2,1-0.3,1.9-0.4,2.9
		c-0.1,1-0.1,1.8-0.1,2.4c0,0.6,0.2,0.9,0.5,0.9c0.5-0.3,1.4-1.9,2.7-4.9c1.2-2.9,2.5-6.1,3.8-9.6c1.2-3.2,2.2-5.6,2.9-7.3
		L176.4,69.8z"/>
	<path class="st0" d="M221.2,50c-0.8,0.1-1.5,0.2-2.1,0.4c-0.6,0.1-1.2,0.2-1.7,0.4c-0.5,0.1-0.9,0.2-1.3,0.3
		c-0.4,0.1-0.7,0.2-1,0.3c-0.3,0.1-0.5,0.2-0.7,0.3c-0.2,0.1-0.3,0.2-0.4,0.2c-0.1,0.1-0.2,0.1-0.3,0.2c-0.1,0-0.1,0.1-0.1,0.1
		c2.1-0.4,4.6-0.8,7.3-1.2c2.3-0.4,4.1-0.6,5.6-0.7c1.4-0.1,2.8-0.1,3.9-0.1c0.5,0,1,0,1.5,0c-0.2,0.1-0.3,0.1-0.5,0.2
		c-0.7,0.3-1.4,0.6-2,0.9c-0.6,0.3-1,0.4-1.1,0.5c-0.1,0,0,0,0.3,0.1c0.3,0.1,0.6,0.2,1.1,0.3c0.5,0.1,0.9,0.2,1.4,0.4
		c0.5,0.1,1,0.3,1.6,0.5c-1,0.3-2.3,0.6-3.9,0.8c-1.7,0.2-3,0.4-4,0.7c0.7,0.3,1.6,0.5,2.5,0.8c1,0.2,1.8,0.5,2.6,0.8
		c-1.6,0.1-3,0.3-4.2,0.7c-1.2,0.3-2.6,0.5-4.2,0.7c1.2,0.4,2.5,0.8,3.7,1.1c-2-0.3-4.3-0.4-6.8-0.3c-2.5,0.2-4.8,0.5-6.8,0.9
		c0.7-0.4,1.4-0.8,2-1.2c0.4-0.2,0.8-0.5,1.3-0.7c-1.9,0.4-3.6,1-5.1,1.7c-0.8,0.4-1.5,1.1-2.3,2c-0.8,0.9-1.5,1.9-2.1,3
		c-0.6,1-1.3,2.3-2.1,3.8c0.1-0.8,0.2-1.6,0.2-2.4c0-0.1,0-0.2,0-0.3c-1.6,2.8-3,5.3-4.1,7.4c0.3,0.1,0.6,0.2,0.9,0.2
		c0.2,0.1,0.4,0.1,0.5,0.1c2-0.2,4-0.4,6-0.6c0.5,0.1,1,0.2,1.5,0.4c0.5,0.2,0.9,0.3,1.4,0.4c-0.2,0.2-0.4,0.3-0.6,0.4
		c-0.2,0.1-0.4,0.3-0.6,0.4c1.1,0,2.2,0.1,3.4,0.1c1.2,0,2.5,0.1,3.7,0.1c-1.4,0.4-2.7,0.8-4.1,1.1c1.7,0.3,3.1,0.5,4.2,0.7
		c1.1,0.2,2.1,0.3,3.1,0.5c0.9,0.2,1.5,0.2,1.6,0.2c0.1,0-0.1,0.1-0.6,0.2c-0.5,0.1-1.2,0.2-2,0.4c-0.8,0.2-1.7,0.3-2.6,0.5
		c-0.9,0.2-1.9,0.4-3.1,0.6c0.5,0.2,1.1,0.3,1.6,0.5c0.5,0.2,1,0.3,1.6,0.5c-3.2,0.5-6.5,1-9.7,1.5c0.3-0.2,0.6-0.4,0.9-0.6
		c0.3-0.2,0.6-0.4,0.9-0.6c-1.3,0.3-2.7,0.7-4,1c-1.3,0.3-2.7,0.7-4,1c0.2-0.2,0.5-0.4,0.8-0.7c0.3-0.2,0.5-0.5,0.8-0.7l-2.2,0.9
		l-10.2,3.3l4.8-0.6c-1.1,2.2-2,4-2.6,5.6c-0.7,1.6-0.9,2.6-0.8,3.1c0.2,0.6,0.5,1.1,0.9,1.5c0.4,0.3,0.9,0.6,1.4,0.7
		c0.5,0.1,1.1,0.2,1.8,0.2c-0.9-0.7-1.7-1.4-2.6-2.1c2.4,1,4.5,1.3,6.4,0.8c1.9-0.4,3.9-1.3,6-2.5c-0.4,0.3-0.8,0.7-1.1,1.1
		c-0.3,0.4-0.7,0.8-1.1,1.1c3-0.8,5.9-1.7,8.7-2.6c2.9-0.9,5.8-1.8,8.8-2.6c-1.3,0.8-2.6,1.5-3.9,2.2c-0.6,0.4-1.2,0.7-1.8,1.1
		c1.9,0.1,3.8,0.1,5.7,0.2c2,0.1,4.1,0.1,6.1,0.2c-2.1,0.9-3.8,1.6-5.2,2.2c-1.4,0.6-2.7,1.1-3.8,1.5c-1.2,0.5-1.9,0.7-2.2,0.8
		c-0.2,0.1-0.1,0.1,0.3,0.2c0.4,0.1,0.9,0.1,1.6,0.2c0.7,0.1,1.4,0.1,2.2,0.2c0.7,0.1,1.6,0.1,2.7,0.2c-3.4,1-6.9,2-10.3,3.1
		c-4,1.2-8,2.4-12,3.6c1-0.6,2-1.3,3-1.9c0.5-0.3,0.9-0.5,1.3-0.8c-2.2,0.9-4,1.5-5.7,1.9c-1.6,0.4-3.2,0.6-4.8,0.6
		c-1.6,0-3-0.2-4.3-0.5c-1.2-0.4-2.5-0.9-3.9-1.7c0.3,0.3,0.5,0.7,0.8,1c0.5,0.7,1.1,1.4,1.6,2c-1.3-0.6-2.4-1.3-3.2-2.1
		c-0.8-0.7-1.5-1.8-2.1-3c-0.6-1.3-0.8-2.9-0.7-4.7c0.3-2.6,0.8-5,1.7-7.2c0.8-2.3,2.1-4.8,3.7-7.7c-1,0.9-2,1.9-3.1,2.8
		c0.5-0.9,1-1.8,1.4-2.7c0.5-0.9,0.9-1.8,1.4-2.7c-0.7,0.1-1.3,0.2-2,0.4c-0.9,0.1-1.8,0.3-2.6,0.4c1.4-0.5,2.8-1,4.1-1.6
		c0.3-0.1,0.7-0.2,1-0.4c-0.6-0.5-1.2-0.9-1.6-1.3c-0.5-0.3-0.9-0.6-1.3-0.9c-0.4-0.3-0.6-0.4-0.8-0.5c-0.1,0,0.2-0.1,0.7-0.2
		c0.5-0.1,1.2-0.2,2.1-0.4c0.9-0.1,1.8-0.3,2.8-0.4c1.2-2.2,2.3-4.4,3.5-6.7c0,0.5,0,1.1,0,1.6c0,0.5,0,1.1,0,1.6
		c1-2,2.1-3.9,3.1-5.9c1-1.9,2.1-3.9,3.1-5.9c-1.4,1-2.9,2.1-4.3,3.1c0.1-0.2,0.3-0.4,0.4-0.7c0.2-0.2,0.4-0.6,0.8-1
		c0.3-0.4,0.8-0.9,1.4-1.5c0.6-0.6,1.3-1.2,2.2-2c1.5-1.3,2.8-2.2,4.1-2.9c1.3-0.7,2.7-1.2,4.3-1.7c-0.4,0.4-0.7,0.7-1,1.1
		c-0.7,0.7-1.4,1.4-2,2c4.2-1.9,8.1-3.1,11.8-3.6c1.1-0.1,2.1-0.2,3.1-0.2c0.9,0,1.9-0.1,3-0.1c0.6,0,1.2,0,1.9,0
		C222.9,49.7,222,49.9,221.2,50z"/>
</g>
<g>
	<defs>
		<path id="SVGID_1_" d="M40.4,134.3c0,0-5.7-1.2-4.6,4.2c1.1,5.4,3.7,4.8,3.7,4.8l0.9,3.8c0,0-1.9-1.5-2.4,0.7s0,4.1,0,4.1l3-1.6
			l3.2,1.6l2.1-2.2l2.3,3.5l3.2-3.6c0,0,0.5-1.4,0.5-3.7s0-5.7,0-5.7s4,0.8,4,1.3s0.7,6.6,0.7,6.6s1,2.7,1.8,3.1
			c0.8,0.4,3.2,1,3.2,1V149l1.8,3.1l2.4,1.1l0.7-3.9l4.3,3.9c0,0,1.1-4.7,0-5.7c-1.1-1-1.6-1.6-1.8-2c-0.2-0.4,0.7-2.9,0.7-2.9
			s1.8-1,1.6-1.9s0.5-5.3-0.5-6.5c-1-1.2-2.4-1.8-2.4-1.8s0.7-3.3,1.9-5c1.2-1.7,1.9-4.1,1.9-4.1l0.8-2.3l0.7,3.9l2.1-3.4v7.6
			c0,0,2.7,0.4,5.3-9.8c2.3-1,1.4-0.2,3.4,0l-0.6-8.9l2.5,2l-0.4-9.9l3.1,1.6l-2.2-11.9l2-0.6l-3.6-8.6l1.6-2.4l-0.5-3.3
			c0,0,2.9-0.2,3.5-0.7c0.6-0.5-0.7-3.1-0.9-3.5c-0.2-0.4-0.8-2.2-4-3.8c-3.2-1.6-2.8-3.1-5.6-3.2s-7.4-1.6-7.4-1.6h-1.8L70.2,63
			c0,0,2-1.8,3.3-4.2c1.3-2.4,1.3-2.4,1.3-2.4s7.3,3,14.1,3c-4.4-8.2-8-11.7-11.6-11.8c-3.6-0.1-2.2-3-2.1-3.5
			c0.1-0.5,0.7-1.8,0.7-1.8h4.3c0,0-0.6-3.8-3.8-3.8c-3.2,0-3.2,0-3.2,0l-2.3-1l-0.5-1.2L68.5,37l-0.1-1.6L64.8,36l-1.1-1.1l-2.5,1
			l-0.9-1l-3,0.5L56,33.9l-3.4,2.4l-1.2-2.4l-4.3,3.4l-0.5-1.6c0,0-7,2.4-8.6,12.5s-1,18.6-1,18.6s-14.4-1.6-19,10.1
			c0,0-2.8,3.2,2,1.7c-0.4,4.7,1.1,6.4,1.1,6.4l3.1-2.8l-0.6,6.3l-2.8,9.2l1.6,0.5c0,0,0.6,5.8-1.3,9.1c1.8,0.8,4.4-0.1,4.4-0.1
			l-0.7,12.1l2.8-1.7c0,0-0.3,7.1,4.4,8.7c0.7-4.4,0.8-4.5,0.8-4.5l1.8,0.7l3.6,0.5c0,0,1.1,6.7,2.2,8.5
			C40.4,134.3,40.4,134.3,40.4,134.3z"/>
	</defs>
	<clipPath id="SVGID_2_">
		<use xlink:href="#SVGID_1_"  style="overflow:visible;"/>
	</clipPath>
	<g style="clip-path:url(#SVGID_2_);">
		
			<image style="overflow:visible;" width="480" height="360" xlink:href="DED6BE5A.jpg"  transform="matrix(0.5863 0 0 0.5863 -32.2334 -13.2986)">
		</image>
	</g>
</g>
<g>
	<defs>
		<path id="SVGID_3_" d="M492.4,57c0,0-1-6.7-4.4-11.1c-3.4-4.3-4.9-12.3-8.8-14.6s-7.9-4.2-13.8-2.8c-5.9,1.4-8.2,1.8-11.8,6.4
			c-1,0.5-3.5,0.5-3.5,0.5l0.7,2.3l1.3,2.1l-0.6,2.7c0,0,0.6,1.5-2.3,1.3s-11.7-2.4-16.7,2.8c-5,5.2-11.2,11.8-11.2,11.8l16.6-4.8
			h0.9l-4.3,6.5L439,59c0,0-2.8,3.9-2.9,7.8c3.7,1.6,4.7,1.6,4.7,1.6s-3.5,6.6-4.6,15.9s2.5,21.1,2.5,21.1l2.2-2.1l-0.2,9.2h3.6
			c0,0,0,6.5,4.9,9.6c1.3-5.6,1.6-8.5,1.6-8.5s3.6,6.7,4.8,7.9s0,4.8,0,4.8s-4.4-0.8-3.6,5.2c0.8,6,2.9,5.6,2.9,5.6
			s-0.2,1.9-1.3,4.3c-1.1,2.5-1.1,5.5-1.1,5.5l2.3-1.1l2.4-1.1l1,3l3.2-1.6c0,0,2,2.3,2.1,2.6s1.2-2.3,1.2-2.3l4.4-2.2l0.8-4.1
			l2.9-0.7c0,0-0.4,4.1,0.1,5.4s1.4,0,1.4,0l2.9,1.1l1.7-1l3.4,1.6l3.2-2.3l2.2,2.3c0,0,2.7-0.6,2.4-1.8s-0.8-3.2-0.8-3.2
			s-0.7-2.1-0.7-2.9c0-0.8,1.6-2,2.3-3.6s1.7-6.1,1.8-6.6s-2.1-1.1-2.6-1.1s-1.9-1.6-1.9-1.9s-1.1-1.3-1.9-1.6c-0.7-0.2-1-2.5-1-2.5
			l4.1-5.6l2.1-3.6l2.7,0.7v7c0,0,4.1-2.3,5.6-6.7c1.4-4.4,2.9,0.7,2.9,0.7s2.6-10.5,0.9-14.5c1.8-0.2,0.6-11.6,0.6-11.6l1.5,1.2
			l-2.4-10.6l2.4-1.6l1.9,0.4c0,0,1.6-0.8,1.6-5c2.6-1.3,2.6-3.1,2.6-3.1l-1-4.2C510.4,64.9,503.3,55.3,492.4,57z"/>
	</defs>
	<clipPath id="SVGID_4_">
		<use xlink:href="#SVGID_3_"  style="overflow:visible;"/>
	</clipPath>
	<g style="clip-path:url(#SVGID_4_);">
		
			<image style="overflow:visible;" width="480" height="360" xlink:href="DED6BE5E.jpg"  transform="matrix(0.608 0 0 0.608 260.5051 -25.7736)">
		</image>
	</g>
</g>
</svg>
